<?xml version="1.0" standalone="no"?><!DOCTYPE svg PUBLIC "-//W3C//DTD SVG 1.1//EN" "http://www.w3.org/Graphics/SVG/1.1/DTD/svg11.dtd"><svg t="1560391983768" class="icon" style="" viewBox="0 0 1024 1024" version="1.1" xmlns="http://www.w3.org/2000/svg" p-id="3183" xmlns:xlink="http://www.w3.org/1999/xlink" width="200" height="200"><defs><style type="text/css"></style></defs><path d="M512.009308 0a511.995894 511.995894 0 1 0 511.94114 511.995894A512.598177 512.598177 0 0 0 512.064061 0z m0 914.485661a402.489767 402.489767 0 1 1 402.435014-402.435014 402.982545 402.982545 0 0 1-402.435014 402.435014z" fill="#B3B3B3" p-id="3184"></path><path d="M512.009308 290.191235a174.114741 174.114741 0 0 0-173.950482 174.005234 54.753063 54.753063 0 0 0 109.506127 0 64.444355 64.444355 0 1 1 64.444355 64.444356 54.753063 54.753063 0 0 0-54.753063 54.753063c0 0.985555 0.547531 1.861604 0.547531 2.847159 0 1.095061-0.547531 2.025863-0.547531 3.120925v162.069067a54.753063 54.753063 0 0 0 109.506126 0v-122.97538a173.457704 173.457704 0 0 0-54.753063-338.209671z" fill="#B3B3B3" p-id="3185"></path></svg>