<?xml version="1.0" standalone="no"?><!DOCTYPE svg PUBLIC "-//W3C//DTD SVG 1.1//EN" "http://www.w3.org/Graphics/SVG/1.1/DTD/svg11.dtd"><svg t="1560391996485" class="icon" style="" viewBox="0 0 1024 1024" version="1.1" xmlns="http://www.w3.org/2000/svg" p-id="3298" xmlns:xlink="http://www.w3.org/1999/xlink" width="200" height="200"><defs><style type="text/css"></style></defs><path d="M941.478895 540.0153l-44.606885-25.784956v-2.719932l45.694858-26.328942a125.660858 125.660858 0 0 0 45.858053-171.355716l-65.822354-114.345941a125.552061 125.552061 0 0 0-171.464513-45.966851l-44.82448 25.893753-1.686358-0.979176v-52.875478A125.660858 125.660858 0 0 0 579.075155 0H447.376048A125.715257 125.715257 0 0 0 321.769588 125.552061v51.733107l-2.01275 1.19677-45.858053-26.492138a125.824054 125.824054 0 0 0-171.518912 46.02125l-65.822355 114.237144a125.769656 125.769656 0 0 0 45.966851 171.464513l44.606885 25.730557v2.611135l-45.640459 26.328941a125.769656 125.769656 0 0 0-45.966851 171.464514l65.876753 114.345941a125.824054 125.824054 0 0 0 171.518912 45.912452l44.770081-25.893752 1.686358 0.979175v53.20187a125.660858 125.660858 0 0 0 125.606459 125.552061h131.535912a125.660858 125.660858 0 0 0 125.552061-125.552061v-52.331492l1.958351-1.087972 45.966851 26.492137a125.660858 125.660858 0 0 0 171.464513-46.075648l65.822355-114.237144a125.824054 125.824054 0 0 0-45.803655-171.138121z m-154.764131-53.854654c0.81598 8.431789 1.359966 16.156396 1.359966 25.512962a259.100722 259.100722 0 0 1-1.414365 27.416915l-3.535911 35.032724 103.738206 60.0017a16.754781 16.754781 0 0 1 6.147047 22.738631l-65.822355 114.182746a16.754781 16.754781 0 0 1-22.847428 6.147046l-104.662984-60.436889-28.504887 20.127497a284.341691 284.341691 0 0 1-46.02125 26.437739l-31.877603 14.524437v120.547386a16.754781 16.754781 0 0 1-16.754781 16.754781H444.982507a16.80918 16.80918 0 0 1-16.809179-16.754781v-120.819379l-31.442414-14.687633a273.026774 273.026774 0 0 1-45.422865-26.546536l-28.559286-20.671484-104.227794 60.219295a16.972376 16.972376 0 0 1-22.847429-6.092648l-65.876753-114.237144a16.863578 16.863578 0 0 1 6.092648-22.956226l104.608585-60.38249-3.20952-34.651934a280.80578 280.80578 0 0 1-1.359966-25.567361c0-9.410965 0.543986-18.495538 1.414364-27.58011l3.481513-34.978326-103.901402-59.947301a16.863578 16.863578 0 0 1-6.092648-22.956226L196.652716 252.40969a16.917977 16.917977 0 0 1 22.847428-6.201445l104.771781 60.545686 28.504888-20.290693a271.9932 271.9932 0 0 1 45.803654-26.274543l31.986401-14.470038V125.552061A16.754781 16.754781 0 0 1 447.430446 108.79728h131.644709a16.754781 16.754781 0 0 1 16.80918 16.754781v120.384191l31.388015 14.633234a284.341691 284.341691 0 0 1 45.586061 26.764131l28.504887 20.671483 104.227794-60.273693a16.754781 16.754781 0 0 1 22.847429 6.092647l65.822354 114.291543a16.863578 16.863578 0 0 1-6.038249 22.901828l-104.717382 60.38249z" fill="#999999" p-id="3299"></path><path d="M511.838436 320.244794a191.428814 191.428814 0 1 0 191.374416 191.428814 191.646409 191.646409 0 0 0-191.374416-191.428814z m0 274.060348a82.631534 82.631534 0 1 1 82.577136-82.685932 82.740331 82.740331 0 0 1-82.577136 82.685932z" fill="#999999" p-id="3300"></path></svg>