<?xml version="1.0" standalone="no"?><!DOCTYPE svg PUBLIC "-//W3C//DTD SVG 1.1//EN" "http://www.w3.org/Graphics/SVG/1.1/DTD/svg11.dtd"><svg t="1560391961695" class="icon" style="" viewBox="0 0 1310 1024" version="1.1" xmlns="http://www.w3.org/2000/svg" p-id="3069" xmlns:xlink="http://www.w3.org/1999/xlink" width="255.859375" height="200"><defs><style type="text/css"></style></defs><path d="M1082.225729 549.079618a256.960456 256.960456 0 0 0-219.702588-390.893056h-0.279608a255.842021 255.842021 0 0 0-86.469011 15.658091 289.814486 289.814486 0 1 0-488.686221 301.138641A453.665223 453.665223 0 0 0 0 896.213901a127.921011 127.921011 0 0 0 127.781206 127.781206h1061.674485a118.97353 118.97353 0 0 0 118.833726-118.833726 396.834741 396.834741 0 0 0-226.063688-356.081763z m-219.77249-251.088673a117.645388 117.645388 0 0 1 58.158624 219.912295 68.713854 68.713854 0 0 0-33.832661 55.781949 454.084636 454.084636 0 0 0-151.617854-98.631992 287.298007 287.298007 0 0 0 64.030408-158.538171 112.332822 112.332822 0 0 1 63.261483-18.524081zM511.124825 141.689645a150.709125 150.709125 0 0 1 0.699021 301.348348h-1.398043A150.709125 150.709125 0 0 1 511.124825 141.689645z m26.562832 742.501079H140.01409a313.651133 313.651133 0 0 1 313.161818-301.278446h115.758029a313.790938 313.790938 0 0 1 313.161818 301.278446z m483.86297 0a449.890505 449.890505 0 0 0-71.579844-232.424787 257.379869 257.379869 0 0 1 217.745327 232.424787z" fill="#999999" p-id="3070"></path></svg>